<mxfile host="65bd71144e">
    <diagram id="p2ordxaEwRKlGVj_A4rS" name="Page-1">
        <mxGraphModel dx="792" dy="1641" grid="1" gridSize="10" guides="1" tooltips="1" connect="1" arrows="1" fold="1" page="1" pageScale="1" pageWidth="827" pageHeight="1169" math="0" shadow="0">
            <root>
                <mxCell id="0"/>
                <mxCell id="1" parent="0"/>
                <mxCell id="2" value="" style="rounded=0;whiteSpace=wrap;html=1;" vertex="1" parent="1">
                    <mxGeometry x="120" y="-30" width="620" height="460" as="geometry"/>
                </mxCell>
                <mxCell id="3" value="" style="rounded=0;whiteSpace=wrap;html=1;" vertex="1" parent="1">
                    <mxGeometry x="130" y="40" width="70" height="370" as="geometry"/>
                </mxCell>
                <mxCell id="4" value="" style="rounded=0;whiteSpace=wrap;html=1;" vertex="1" parent="1">
                    <mxGeometry x="210" y="40" width="420" height="370" as="geometry"/>
                </mxCell>
                <mxCell id="5" value="" style="rounded=0;whiteSpace=wrap;html=1;" vertex="1" parent="1">
                    <mxGeometry x="640" y="40" width="90" height="370" as="geometry"/>
                </mxCell>
                <mxCell id="6" value="div img card" style="rounded=0;whiteSpace=wrap;html=1;" vertex="1" parent="1">
                    <mxGeometry x="220" y="70" width="90" height="60" as="geometry"/>
                </mxCell>
                <mxCell id="9" value="card" style="rounded=0;whiteSpace=wrap;html=1;" vertex="1" parent="1">
                    <mxGeometry x="324" y="50" width="90" height="80" as="geometry"/>
                </mxCell>
                <mxCell id="10" value="card" style="rounded=0;whiteSpace=wrap;html=1;" vertex="1" parent="1">
                    <mxGeometry x="220" y="140" width="90" height="80" as="geometry"/>
                </mxCell>
                <mxCell id="11" value="card" style="rounded=0;whiteSpace=wrap;html=1;" vertex="1" parent="1">
                    <mxGeometry x="430" y="50" width="90" height="80" as="geometry"/>
                </mxCell>
                <mxCell id="12" value="card" style="rounded=0;whiteSpace=wrap;html=1;" vertex="1" parent="1">
                    <mxGeometry x="324" y="140" width="90" height="80" as="geometry"/>
                </mxCell>
                <mxCell id="13" value="card" style="rounded=0;whiteSpace=wrap;html=1;" vertex="1" parent="1">
                    <mxGeometry x="530" y="50" width="90" height="80" as="geometry"/>
                </mxCell>
                <mxCell id="14" value="card" style="rounded=0;whiteSpace=wrap;html=1;" vertex="1" parent="1">
                    <mxGeometry x="220" y="230" width="90" height="80" as="geometry"/>
                </mxCell>
                <mxCell id="15" value="card" style="rounded=0;whiteSpace=wrap;html=1;" vertex="1" parent="1">
                    <mxGeometry x="430" y="140" width="90" height="80" as="geometry"/>
                </mxCell>
                <mxCell id="16" value="card" style="rounded=0;whiteSpace=wrap;html=1;" vertex="1" parent="1">
                    <mxGeometry x="530" y="230" width="90" height="80" as="geometry"/>
                </mxCell>
                <mxCell id="17" value="card" style="rounded=0;whiteSpace=wrap;html=1;" vertex="1" parent="1">
                    <mxGeometry x="530" y="140" width="90" height="80" as="geometry"/>
                </mxCell>
                <mxCell id="18" value="card" style="rounded=0;whiteSpace=wrap;html=1;" vertex="1" parent="1">
                    <mxGeometry x="324" y="230" width="90" height="80" as="geometry"/>
                </mxCell>
                <mxCell id="19" value="card" style="rounded=0;whiteSpace=wrap;html=1;" vertex="1" parent="1">
                    <mxGeometry x="430" y="230" width="90" height="80" as="geometry"/>
                </mxCell>
                <mxCell id="20" value="card" style="rounded=0;whiteSpace=wrap;html=1;" vertex="1" parent="1">
                    <mxGeometry x="530" y="320" width="90" height="80" as="geometry"/>
                </mxCell>
                <mxCell id="21" value="card" style="rounded=0;whiteSpace=wrap;html=1;" vertex="1" parent="1">
                    <mxGeometry x="430" y="320" width="90" height="80" as="geometry"/>
                </mxCell>
                <mxCell id="22" value="card" style="rounded=0;whiteSpace=wrap;html=1;" vertex="1" parent="1">
                    <mxGeometry x="324" y="320" width="90" height="80" as="geometry"/>
                </mxCell>
                <mxCell id="23" value="card" style="rounded=0;whiteSpace=wrap;html=1;" vertex="1" parent="1">
                    <mxGeometry x="220" y="320" width="90" height="80" as="geometry"/>
                </mxCell>
                <mxCell id="26" value="start" style="rounded=0;whiteSpace=wrap;html=1;" vertex="1" parent="1">
                    <mxGeometry x="140" y="100" width="50" height="20" as="geometry"/>
                </mxCell>
                <mxCell id="27" value="scores" style="rounded=0;whiteSpace=wrap;html=1;" vertex="1" parent="1">
                    <mxGeometry x="660" y="130" width="50" height="20" as="geometry"/>
                </mxCell>
                <mxCell id="28" value="time" style="rounded=0;whiteSpace=wrap;html=1;" vertex="1" parent="1">
                    <mxGeometry x="660" y="100" width="50" height="20" as="geometry"/>
                </mxCell>
                <mxCell id="30" value="paire trouver" style="rounded=0;whiteSpace=wrap;html=1;" vertex="1" parent="1">
                    <mxGeometry x="660" y="165" width="50" height="30" as="geometry"/>
                </mxCell>
                <mxCell id="31" value="quitter" style="rounded=0;whiteSpace=wrap;html=1;" vertex="1" parent="1">
                    <mxGeometry x="140" y="130" width="50" height="20" as="geometry"/>
                </mxCell>
                <mxCell id="32" value="Jeu de mÃ©moire" style="rounded=0;whiteSpace=wrap;html=1;" vertex="1" parent="1">
                    <mxGeometry x="130" y="-20" width="600" height="50" as="geometry"/>
                </mxCell>
                <mxCell id="34" value="aside" style="text;html=1;strokeColor=none;fillColor=none;align=center;verticalAlign=middle;whiteSpace=wrap;rounded=0;" vertex="1" parent="1">
                    <mxGeometry x="120" y="40" width="60" height="30" as="geometry"/>
                </mxCell>
                <mxCell id="36" value="aside" style="text;html=1;strokeColor=none;fillColor=none;align=center;verticalAlign=middle;whiteSpace=wrap;rounded=0;" vertex="1" parent="1">
                    <mxGeometry x="630" y="40" width="60" height="30" as="geometry"/>
                </mxCell>
                <mxCell id="37" value="section" style="text;html=1;strokeColor=none;fillColor=none;align=center;verticalAlign=middle;whiteSpace=wrap;rounded=0;" vertex="1" parent="1">
                    <mxGeometry x="210" y="40" width="60" height="30" as="geometry"/>
                </mxCell>
            </root>
        </mxGraphModel>
    </diagram>
</mxfile>